<?xml version="1.0" encoding="UTF-8"?>
<!DOCTYPE svg PUBLIC "-//W3C//DTD SVG 1.1//EN" "http://www.w3.org/Graphics/SVG/1.1/DTD/svg11.dtd">
<!-- Creator: CorelDRAW 2021 (64-Bit) -->
<svg xmlns="http://www.w3.org/2000/svg" xml:space="preserve" width="12.8286in" height="2.98572in" version="1.1" style="shape-rendering:geometricPrecision; text-rendering:geometricPrecision; image-rendering:optimizeQuality; fill-rule:evenodd; clip-rule:evenodd"
viewBox="0 0 418.67 97.44"
 xmlns:xlink="http://www.w3.org/1999/xlink"
 xmlns:xodm="http://www.corel.com/coreldraw/odm/2003">
 <defs>
  <style type="text/css">
   <![CDATA[
    .fil1 {fill:#0197B2}
    .fil2 {fill:#FF6600}
    .fil0 {fill:#0197B2;fill-rule:nonzero}
   ]]>
  </style>
 </defs>
 <g id="Layer_x0020_1">
  <metadata id="CorelCorpID_0Corel-Layer"/>
  <g id="_2426831842336">
   <path class="fil0" d="M124.29 78.17l11.81 0 0 -17.07 13.34 -13.83 20.29 30.9 14.7 0 -26.8 -38.81 26.28 -26.93 -15.81 0 -31.99 34.28 0 -34.28 -11.81 0 0 65.73zm79.69 0.94c14.39,0 23.82,-11.13 23.82,-24.29 0,-13.11 -9.43,-24.09 -23.82,-24.09 -14.39,0 -23.82,10.97 -23.82,24.09 0,13.16 9.43,24.29 23.82,24.29zm0 -9.78c-8.56,0 -12,-6.89 -12,-14.51 0,-7.62 3.45,-14.27 12,-14.27 8.61,0 12,6.65 12,14.27 0,7.62 -3.4,14.51 -12,14.51zm29.66 28.12l11.72 0 0 -23.91c3.25,4 8.1,5.59 13.07,5.59 13.07,0 20.09,-11.21 20.09,-24.2 0,-12.85 -7.02,-24.2 -19.89,-24.2 -4.84,0 -10,1.64 -13.26,5.64l0 -4.68 -11.72 0 0 65.77zm22.13 -28.61c-7.81,0 -11.45,-6.1 -11.45,-13.91 0,-7.83 3.64,-13.73 11.45,-13.73 7.83,0 11.3,6 11.3,13.73 0,7.72 -3.48,13.91 -11.3,13.91zm29.08 9.34l11.34 0 0 -13.64 7.16 -7.91 13.62 21.55 13.4 0 -19.31 -28.48 17.4 -18.01 -14.75 0 -17.53 19.31 0 -38.55 -11.34 0 0 65.73zm64.44 -47.44c-9.19,0 -15.1,4.1 -19.56,10.18l8.69 6.29c2,-3.4 5.6,-6.56 10.96,-6.56 7.41,0 9.48,2.92 9.7,9.81l-12.64 0c-10.43,0 -18.51,3.35 -18.51,13.45 0,9.76 7.35,15.23 16.89,15.23 5.3,0 11.51,-2.32 14.54,-7.07l0.7 6.11 9.3 0 0 -28.18c0,-11.35 -7.41,-19.26 -20.07,-19.26zm-2.21 38.87c-5.08,0 -7.54,-2.19 -7.54,-5.29 0,-2.95 2.37,-5.67 7.54,-5.67l12.04 0 0 0.37c-0.7,5.54 -5.03,10.59 -12.04,10.59zm47.04 9.53c5.11,0 10.27,-1.78 13.5,-6.19l0.51 5.24 10.54 0 0 -65.73 -11.53 0 0 23.93c-3.21,-4 -8.37,-5.64 -13.21,-5.64 -12.88,0 -19.94,11.35 -19.94,24.18 0,13 7.07,24.21 20.13,24.21zm2.75 -10.29c-7.83,0 -11.35,-6.1 -11.35,-13.91 0,-7.73 3.52,-13.91 11.35,-13.91 7.81,0 11.26,6.08 11.26,13.89 0,7.92 -3.45,13.92 -11.26,13.92z"/>
   <g>
    <path class="fil1" d="M28.86 0l-0.78 43.92 29.37 -29.01 40.45 0 -18.63 17.23c-3.23,2.99 -8.96,9.13 -12.51,11.14 -3.38,1.92 -7.19,2.45 -11.18,2.39l-28.69 0.01 -26.9 26.96 0 -36.59c0,-7.79 3.39,-10.4 10.03,-17.52l18.83 -18.54z"/>
    <path class="fil2" d="M27.12 51.39l27.81 0c5.93,0 8.42,0.58 10.81,2.33 10.15,7.43 21.86,18.26 32.17,26.46l-41.92 0 -28.88 -28.79z"/>
   </g>
  </g>
 </g>
</svg>
